<svg width="1191" height="1787" viewBox="0 0 1191 1787" fill="none" xmlns="http://www.w3.org/2000/svg">
<path id="Vector" fill-rule="evenodd" clip-rule="evenodd" d="M1164.18 2.17913C1162.11 2.91713 1159.65 4.13513 1158.72 4.88513C1145.31 15.6781 1108.17 47.2911 1098.64 56.0341C1094.57 59.7661 1088.02 65.3541 1084.09 68.4531C1080.15 71.5511 1074.24 76.6251 1070.94 79.7281C1067.64 82.8321 1062.46 87.1901 1059.44 89.4131C1056.41 91.6371 1048.99 97.9671 1042.94 103.48C1036.89 108.994 1028.69 116.147 1024.72 119.377C1011.88 129.834 996.183 143.116 989.985 148.765C986.658 151.798 979.885 157.631 974.935 161.727C969.985 165.823 962.081 172.566 957.369 176.712C946.716 186.088 933.363 197.476 924.256 204.954C920.436 208.091 912.276 215.092 906.122 220.513C899.969 225.933 891.11 233.543 886.435 237.423C881.76 241.304 877.035 245.489 875.935 246.724C874.835 247.959 871.01 251.255 867.435 254.049C863.86 256.843 857.56 262.097 853.435 265.725C849.31 269.353 841.66 275.904 836.435 280.282C824.734 290.086 808.008 304.322 795.512 315.113C790.329 319.588 782.873 325.95 778.942 329.25C775.011 332.55 767.777 338.933 762.865 343.435C757.954 347.937 750.472 354.462 746.24 357.935C732.207 369.451 713.999 385.001 709.435 389.367C706.96 391.735 699.898 397.853 693.741 402.961C677.076 416.789 655.795 435.237 648.435 442.237C644.86 445.636 637.21 452.322 631.435 457.093C620.98 465.732 616.234 469.849 594.52 489.12C588.242 494.691 578.738 502.85 573.4 507.25C560.758 517.671 536.556 538.661 528.935 545.813C525.635 548.91 520.235 553.598 516.935 556.231C513.635 558.864 505.52 565.879 498.902 571.821C492.284 577.762 485.084 584.034 482.902 585.759C480.72 587.484 472.86 594.428 465.435 601.191C451.984 613.441 443.268 621.029 421.435 639.498C415.11 644.848 406.335 652.633 401.935 656.798C397.535 660.962 389.21 668.382 383.435 673.286C377.66 678.19 369.541 685.363 365.392 689.226C361.244 693.089 351.344 701.98 343.392 708.983C325.498 724.744 316.155 733.031 301.568 746.081C295.316 751.674 285.866 760.001 280.568 764.584C275.27 769.168 264.635 778.683 256.935 785.728C249.235 792.774 240.623 800.356 237.797 802.579C234.971 804.801 229.121 809.912 224.797 813.937C220.473 817.961 212.66 824.824 207.435 829.187C202.21 833.549 195.003 839.849 191.419 843.185C187.836 846.521 175.244 857.8 163.438 868.25C126.858 900.628 123.19 903.917 114.249 912.343C109.472 916.846 100.922 924.484 95.2492 929.317C89.5762 934.15 81.7702 941.062 77.9022 944.677C74.0352 948.292 67.0602 954.577 62.4022 958.644C50.8682 968.717 21.1122 996.033 14.7602 1002.38C6.65519 1010.48 4.60719 1014.48 2.13519 1027.06C-0.0498099 1038.17 -0.0638117 1038.96 0.0271883 1142.75C0.176188 1313.5 2.28719 1646.92 3.24719 1651.42C4.35519 1656.61 8.66318 1660.67 13.1082 1660.72C15.1992 1660.74 17.7572 1659.62 20.6082 1657.43C25.7322 1653.51 56.8142 1627.51 91.4352 1598.2C97.7602 1592.84 108.109 1584.14 114.433 1578.85C120.756 1573.57 129.573 1566.1 134.025 1562.25C143.617 1553.96 162.503 1537.95 170.935 1530.98C178.892 1524.39 203.462 1503.57 217.046 1491.89C234.867 1476.57 245.364 1467.61 252.926 1461.25C278.626 1439.65 290.25 1429.79 291.501 1428.55C292.29 1427.77 304.185 1417.73 317.935 1406.24C346.462 1382.42 351.237 1378.36 363.842 1367.21C368.843 1362.79 379.423 1353.56 387.352 1346.71C395.282 1339.86 410.582 1326.63 421.352 1317.32C440.773 1300.53 467.325 1278.14 484.833 1263.79C497.356 1253.52 532.844 1223.86 543.511 1214.75C548.339 1210.63 563.234 1198.05 576.612 1186.8C589.99 1175.56 609.485 1159.07 619.935 1150.16C630.385 1141.25 642.353 1131.1 646.53 1127.6C650.707 1124.11 661.882 1114.5 671.363 1106.25C680.844 1098 693.668 1086.98 699.861 1081.75C706.054 1076.53 718.874 1065.5 728.35 1057.25C737.826 1049 751.509 1037.14 758.757 1030.9C766.005 1024.65 773.96 1017.66 776.435 1015.37C784.021 1008.33 809.096 986.568 816.325 980.75C820.084 977.725 830.33 968.95 839.095 961.25C847.86 953.55 859.49 943.425 864.941 938.75C870.392 934.075 880.945 924.835 888.393 918.218C895.841 911.6 910.035 899.466 919.935 891.253C929.835 883.04 941.31 873.347 945.435 869.712C949.56 866.077 957.003 859.742 961.974 855.634C1011.26 814.908 1043.54 781.988 1068.13 747.372C1099.06 703.827 1109.72 686.338 1127.93 649.25C1157.58 588.88 1175.77 529.699 1183.87 467.25C1190.01 419.927 1190.83 393.174 1189.96 270.25C1188.15 16.9051 1188.05 9.47213 1186.42 6.25013C1183.87 1.18513 1172.69 -0.85987 1164.18 2.17913ZM693.435 1205.3C683.994 1210.32 675.333 1216.64 663.435 1227.2C657.66 1232.33 647.985 1240.61 641.935 1245.6C626.729 1258.14 616.525 1266.79 596.364 1284.25C586.837 1292.5 574.742 1302.81 569.488 1307.17C564.234 1311.53 557.176 1317.65 553.804 1320.78C550.432 1323.9 543.232 1330.12 537.804 1334.58C532.376 1339.05 521.551 1348.23 513.747 1354.98C477.044 1386.73 467.582 1394.8 458.6 1402.05C453.284 1406.33 446.91 1411.78 444.435 1414.14C440.049 1418.33 425.316 1430.72 406.999 1445.62C390.15 1459.33 382.435 1468.08 382.435 1473.49C382.435 1476.95 385.999 1483.41 391.961 1490.75C394.865 1494.33 399.197 1499.81 401.588 1502.93C403.979 1506.06 412.235 1516.4 419.935 1525.92C427.635 1535.44 435.06 1544.66 436.435 1546.42C437.81 1548.18 447.035 1559.59 456.935 1571.79C466.835 1583.99 480.785 1601.27 487.935 1610.18C495.085 1619.1 506.11 1632.84 512.435 1640.73C518.76 1648.61 526.635 1658.53 529.935 1662.77C533.235 1667.01 538.613 1673.81 541.885 1677.87C545.158 1681.93 560.216 1700.78 575.349 1719.75C607.53 1760.1 618.41 1771.62 629.435 1776.99C647.995 1786.02 659.584 1787.29 710.136 1785.82C780.709 1783.76 879.206 1782.78 1016.65 1782.77L1152.36 1782.75L1154.9 1779.02C1156.29 1776.97 1157.44 1774.11 1157.44 1772.68C1157.44 1765.9 1149.63 1754.67 1116.44 1713.72C1108.94 1704.47 1096.26 1688.49 1085.92 1675.25C1081.19 1669.2 1074.44 1660.88 1070.92 1656.75C1067.4 1652.63 1059.51 1642.74 1053.39 1634.79C1047.27 1626.84 1039.63 1617.17 1036.41 1613.29C1029.92 1605.48 1006.57 1576.4 997.432 1564.75C987.467 1552.05 966.093 1525.11 953.666 1509.6C942.719 1495.94 925.634 1474.33 921.036 1468.33C918.891 1465.54 914.538 1460.1 911.361 1456.25C905.615 1449.29 881.019 1418.66 872.435 1407.78C867.934 1402.07 860.907 1393.3 850.482 1380.37C847.431 1376.59 842.685 1370.66 839.935 1367.21C837.185 1363.75 832.085 1357.39 828.602 1353.08C825.118 1348.78 819.4 1341.65 815.894 1337.25C812.389 1332.85 806.689 1325.71 803.228 1321.37C799.767 1317.04 794.91 1310.87 792.435 1307.67C789.96 1304.47 785.01 1298.2 781.435 1293.75C777.86 1289.3 769.31 1278.61 762.435 1270C755.56 1261.38 745.885 1249.28 740.935 1243.1C735.985 1236.93 727.466 1226.17 722.005 1219.21C712.131 1206.62 706.542 1201.71 702.205 1201.8C700.956 1201.83 697.01 1203.4 693.435 1205.3Z" fill="#F8FAFC"/>
</svg>
