<svg width="1191" height="1786" viewBox="0 0 1191 1786" fill="none" xmlns="http://www.w3.org/2000/svg">
<path id="Vector" fill-rule="evenodd" clip-rule="evenodd" d="M1164.18 1.76311C1162.11 2.50111 1159.65 3.71912 1158.72 4.46912C1145.31 15.2621 1108.17 46.8751 1098.64 55.6181C1094.57 59.3501 1088.02 64.9381 1084.09 68.0371C1080.15 71.1351 1074.24 76.2091 1070.94 79.3121C1067.64 82.4161 1062.46 86.7741 1059.44 88.9971C1056.41 91.2211 1048.99 97.5511 1042.94 103.064C1036.89 108.578 1028.69 115.731 1024.72 118.961C1011.88 129.418 996.183 142.7 989.985 148.349C986.658 151.382 979.885 157.215 974.935 161.311C969.985 165.407 962.081 172.15 957.369 176.296C946.716 185.672 933.363 197.06 924.256 204.538C920.436 207.675 912.276 214.676 906.122 220.097C899.969 225.517 891.11 233.127 886.435 237.007C881.76 240.888 877.035 245.073 875.935 246.308C874.835 247.543 871.01 250.839 867.435 253.633C863.86 256.427 857.56 261.681 853.435 265.309C849.31 268.937 841.66 275.488 836.435 279.866C824.734 289.67 808.008 303.906 795.512 314.697C790.329 319.172 782.873 325.534 778.942 328.834C775.011 332.134 767.777 338.517 762.865 343.019C757.954 347.521 750.472 354.046 746.24 357.519C732.207 369.035 713.999 384.585 709.435 388.951C706.96 391.319 699.898 397.437 693.741 402.545C677.076 416.373 655.795 434.821 648.435 441.821C644.86 445.22 637.21 451.906 631.435 456.677C620.98 465.316 616.234 469.433 594.52 488.704C588.242 494.275 578.738 502.434 573.4 506.834C560.758 517.255 536.556 538.245 528.935 545.397C525.635 548.494 520.235 553.182 516.935 555.815C513.635 558.448 505.52 565.463 498.902 571.405C492.284 577.346 485.084 583.618 482.902 585.343C480.72 587.068 472.86 594.012 465.435 600.775C451.984 613.025 443.268 620.613 421.435 639.082C415.11 644.432 406.335 652.217 401.935 656.382C397.535 660.546 389.21 667.966 383.435 672.87C377.66 677.774 369.541 684.947 365.392 688.81C361.244 692.673 351.344 701.564 343.392 708.567C325.498 724.328 316.155 732.615 301.568 745.665C295.316 751.258 285.866 759.585 280.568 764.168C275.27 768.752 264.635 778.267 256.935 785.312C249.235 792.358 240.623 799.94 237.797 802.163C234.971 804.385 229.121 809.496 224.797 813.521C220.473 817.545 212.66 824.408 207.435 828.771C202.21 833.133 195.003 839.433 191.419 842.769C187.836 846.105 175.244 857.384 163.438 867.834C126.858 900.212 123.19 903.501 114.249 911.927C109.472 916.43 100.922 924.068 95.2492 928.901C89.5762 933.734 81.7702 940.646 77.9022 944.261C74.0352 947.876 67.0602 954.161 62.4022 958.228C50.8682 968.301 21.1122 995.617 14.7602 1001.97C6.65519 1010.07 4.60719 1014.07 2.13519 1026.64C-0.0498099 1037.76 -0.0638117 1038.54 0.0271883 1142.33C0.176188 1313.09 2.28719 1646.51 3.24719 1651C4.35519 1656.2 8.66318 1660.26 13.1082 1660.3C15.1992 1660.32 17.7572 1659.2 20.6082 1657.02C25.7322 1653.09 56.8142 1627.09 91.4352 1597.78C97.7602 1592.42 108.109 1583.72 114.433 1578.44C120.756 1573.16 129.573 1565.68 134.025 1561.83C143.617 1553.54 162.503 1537.54 170.935 1530.56C178.892 1523.98 203.462 1503.15 217.046 1491.47C234.867 1476.15 245.364 1467.19 252.926 1460.83C278.626 1439.23 290.25 1429.38 291.501 1428.13C292.29 1427.35 304.185 1417.31 317.935 1405.83C346.462 1382 351.237 1377.94 363.842 1366.79C368.843 1362.37 379.423 1353.15 387.352 1346.29C395.282 1339.44 410.582 1326.22 421.352 1316.91C440.773 1300.12 467.325 1277.73 484.833 1263.37C497.356 1253.11 532.844 1223.45 543.511 1214.33C548.339 1210.21 563.234 1197.63 576.612 1186.39C589.99 1175.14 609.485 1158.65 619.935 1149.74C630.385 1140.83 642.353 1130.68 646.53 1127.19C650.707 1123.69 661.882 1114.08 671.363 1105.83C680.844 1097.58 693.668 1086.56 699.861 1081.33C706.054 1076.11 718.874 1065.08 728.35 1056.83C737.826 1048.58 751.509 1036.73 758.757 1030.48C766.005 1024.24 773.96 1017.25 776.435 1014.95C784.021 1007.91 809.096 986.152 816.325 980.334C820.084 977.309 830.33 968.534 839.095 960.834C847.86 953.134 859.49 943.009 864.941 938.334C870.392 933.659 880.945 924.419 888.393 917.802C895.841 911.184 910.035 899.05 919.935 890.837C929.835 882.624 941.31 872.931 945.435 869.296C949.56 865.661 957.003 859.326 961.974 855.218C1011.26 814.492 1043.54 781.572 1068.13 746.956C1099.06 703.411 1109.72 685.922 1127.93 648.834C1157.58 588.464 1175.77 529.283 1183.87 466.834C1190.01 419.511 1190.83 392.758 1189.96 269.834C1188.15 16.4891 1188.05 9.05611 1186.42 5.83411C1183.87 0.769114 1172.69 -1.27589 1164.18 1.76311ZM693.435 1204.89C683.994 1209.9 675.333 1216.22 663.435 1226.79C657.66 1231.91 647.985 1240.19 641.935 1245.18C626.729 1257.72 616.525 1266.38 596.364 1283.83C586.837 1292.08 574.742 1302.4 569.488 1306.76C564.234 1311.11 557.176 1317.23 553.804 1320.36C550.432 1323.49 543.232 1329.7 537.804 1334.17C532.376 1338.63 521.551 1347.81 513.747 1354.56C477.044 1386.31 467.582 1394.39 458.6 1401.63C453.284 1405.92 446.91 1411.36 444.435 1413.73C440.049 1417.92 425.316 1430.31 406.999 1445.21C390.15 1458.91 382.435 1467.66 382.435 1473.07C382.435 1476.53 385.999 1482.99 391.961 1490.33C394.865 1493.91 399.197 1499.39 401.588 1502.52C403.979 1505.64 412.235 1515.99 419.935 1525.51C427.635 1535.02 435.06 1544.25 436.435 1546C437.81 1547.76 447.035 1559.18 456.935 1571.38C466.835 1583.58 480.785 1600.85 487.935 1609.77C495.085 1618.68 506.11 1632.43 512.435 1640.31C518.76 1648.19 526.635 1658.11 529.935 1662.36C533.235 1666.6 538.613 1673.39 541.885 1677.45C545.158 1681.51 560.216 1700.36 575.349 1719.33C607.53 1759.69 618.41 1771.2 629.435 1776.57C647.995 1785.61 659.584 1786.88 710.136 1785.4C780.709 1783.35 879.206 1782.37 1016.65 1782.35L1152.36 1782.33L1154.9 1778.6C1156.29 1776.55 1157.44 1773.7 1157.44 1772.26C1157.44 1765.48 1149.63 1754.26 1116.44 1713.31C1108.94 1704.06 1096.26 1688.07 1085.92 1674.83C1081.19 1668.78 1074.44 1660.46 1070.92 1656.33C1067.4 1652.21 1059.51 1642.33 1053.39 1634.38C1047.27 1626.43 1039.63 1616.75 1036.41 1612.88C1029.92 1605.06 1006.57 1575.99 997.432 1564.33C987.467 1551.63 966.093 1524.7 953.666 1509.18C942.719 1495.52 925.634 1473.91 921.036 1467.92C918.891 1465.12 914.538 1459.68 911.361 1455.83C905.615 1448.87 881.019 1418.24 872.435 1407.36C867.934 1401.66 860.907 1392.89 850.482 1379.96C847.431 1376.17 842.685 1370.25 839.935 1366.79C837.185 1363.33 832.085 1356.98 828.602 1352.67C825.118 1348.36 819.4 1341.23 815.894 1336.83C812.389 1332.43 806.689 1325.29 803.228 1320.96C799.767 1316.62 794.91 1310.46 792.435 1307.25C789.96 1304.05 785.01 1297.79 781.435 1293.33C777.86 1288.88 769.31 1278.19 762.435 1269.58C755.56 1260.97 745.885 1248.87 740.935 1242.69C735.985 1236.51 727.466 1225.76 722.005 1218.79C712.131 1206.2 706.542 1201.29 702.205 1201.38C700.956 1201.41 697.01 1202.99 693.435 1204.89Z" fill="#0F172A"/>
</svg>
